# xmcd
#
# Track frame offsets:
#	150
#	23189
#	45399
#	74938
#	98713
#	122637
#	144868
#	162915
#
# Disc length: 2438 seconds
#
# Revision: 0
# Processed by: cddbd v1.5.1PL0 Copyright (c) Steve Scherf et al.
# Submitted via: dBpowerAMP V4.0
#
DISCID=68098408
DTITLE=Nick Cave § The Bad Seeds - Abattoir Blues
DYEAR=1900
DGENRE=
TTITLE0=Get Ready For Love
TTITLE1=Cannibal's Hymn
TTITLE2=Hidding All Away
TTITLE3=Messiah Ward
TTITLE4=There She Goes, My Beautiful World
TTITLE5=Nature Boy
TTITLE6=Abattoir Blues
TTITLE7=Let The Bell Ring
EXTD=\n
EXTT0=
EXTT1=
EXTT2=
EXTT3=
EXTT4=
EXTT5=
EXTT6=
EXTT7=
PLAYORDER=
